# xmcd
#
# Track frame offsets:
#	150
#	16983
#	28535
#	43086
#	62344
#	77524
#	90608
#	113128
#	130158
#	148872
#	175441
#	188857
#	210129
#	240314
#
# Disc length: 3487 seconds
#
# Revision: 1
# Processed by: cddbd v1.5.1PL2 Copyright (c) Steve Scherf et al.
# Submitted via: EasyCDDAExtractor 9.0.0.1
#
DISCID=ae0d9d0e
DTITLE=Motörhead - Gofferpark Fields of Rock Nijmegen 18-06-05
DYEAR=2005
DGENRE=Hard Rock
TTITLE0=Doctor Rock
TTITLE1=Stay Clean
TTITLE2=Love Me Like A Reptile
TTITLE3=Killers
TTITLE4=Over the Top
TTITLE5=No Class
TTITLE6=I Got Mine
TTITLE7=In the Name of Tragedy
TTITLE8=Dancing On Your Grave
TTITLE9=Just 'cos you've got the Power
TTITLE10=Going To Brazil
TTITLE11=Killed By Death
TTITLE12=Ace of Spades
TTITLE13=Overkill
EXTD=
EXTT0=
EXTT1=
EXTT2=
EXTT3=
EXTT4=
EXTT5=
EXTT6=
EXTT7=
EXTT8=
EXTT9=
EXTT10=
EXTT11=
EXTT12=
EXTT13=
PLAYORDER=
